PathFileType	4	(X/Y/Z)	Walk1_0-155.trc
DataRate	CameraRate	NumFrames	NumMarkers	Units	OrigDataRate	OrigDataStartFrame	OrigNumFrames
30	30	6	22	m	30	77	155
Frame#	Time	Hip			RHip			RKnee			RAnkle			RBigToe			RSmallToe			RHeel			LHip			LKnee			LAnkle			LBigToe			LSmallToe			LHeel			Neck			Head			Nose			RShoulder			RElbow			RWrist			LShoulder			LElbow			LWrist		
		X1	Y1	Z1	X2	Y2	Z2	X3	Y3	Z3	X4	Y4	Z4	X5	Y5	Z5	X6	Y6	Z6	X7	Y7	Z7	X8	Y8	Z8	X9	Y9	Z9	X10	Y10	Z10	X11	Y11	Z11	X12	Y12	Z12	X13	Y13	Z13	X14	Y14	Z14	X15	Y15	Z15	X16	Y16	Z16	X17	Y17	Z17	X18	Y18	Z18	X19	Y19	Z19	X20	Y20	Z20	X21	Y21	Z21	X22	Y22	Z22
78	2.6	-0.6753165160144208	0.8870069063406617	0.36179424475417926	-0.6689526061109953	0.8600880451190555	0.46006418999811377	-0.6208801002489068	0.5028913325301522	0.41576825355345187	-0.6545995967238957	0.09999737220472286	0.3811612067473251	-0.42791797190912456	0.053705309196327204	0.3647748701776574	-0.4885981450741996	0.02669978531277146	0.4384648116169952	-0.7048131780942833	0.03324009500143013	0.3659178779825247	-0.6750856348159947	0.8686559629543763	0.25587473148291634	-0.587359727505593	0.5148956472641492	0.23008034530685637	-0.9056684990490346	0.30101640738220603	0.25333084922549665	-0.8856175607229858	0.06864841472438903	0.2756180187783748	-0.9244215219600274	0.10199449855231565	0.22888633958331558	-0.9971376598192405	0.3092488587673093	0.2680052649402067	-0.7283014105304865	1.5701103627672588	0.34785486435328683	-0.6817202407227267	1.8234230231397373	0.3717154086225234	-0.5458951258865905	1.6789002637702193	0.37552269150837203	-0.754002062012722	1.444058981911304	0.5322929119641937	-0.6923388501929565	1.1286973807914202	0.5845039590026757	-0.5796757734373111	0.8920954124504819	0.6331904265737361	-0.7617985323203543	1.4587102449030536	0.14860448012383168	-0.7411437191403453	1.1388614308455667	0.1212862049741452	-0.6928418677091956	0.888308942329476	0.09838721214085715
79	2.6333333333333333	-0.6486307826657072	0.899468101146379	0.359128711371524	-0.639179792900563	0.8799770139984507	0.460338694116371	-0.5933627214503109	0.4969113043099926	0.43737188857216447	-0.6536788775182008	0.10678617506359278	0.3904036246955835	-0.42455374585590994	0.04365046708059325	0.38634306708767274	-0.48718994711946306	0.026889202359082983	0.44020244221167965	-0.7093677094018689	0.028681386577156767	0.3530539406439444	-0.6457154325597169	0.8842202542700003	0.2540754178642289	-0.5121702801968199	0.5412121173818134	0.23076559990127196	-0.7995171305492494	0.2924743882652895	0.2590247925988536	-0.7066492381794253	0.1044202850750638	0.28347766330594687	-0.762392548426572	0.12402077595239126	0.21299585871774918	-0.8740391130422458	0.28090678537752123	0.2740144910192805	-0.6878779725593358	1.5787511856173073	0.3484510822433595	-0.617580976037942	1.8127098376918016	0.39452992509417295	-0.502689961957636	1.6864610697572842	0.38027248117697776	-0.7188101779881206	1.454219025584978	0.5293404356887988	-0.6399098446235783	1.1408709431038129	0.5895841130415744	-0.5031956525288677	0.9131257926584639	0.6349519572482869	-0.7212234305756445	1.466751224573549	0.1479409312584716	-0.7153718768315195	1.1535696627598844	0.09575996777726047	-0.6761735527354926	0.8893538127718194	0.09444035630512569
80	2.6666666666666665	-0.6132325868903494	0.9087497713180095	0.3626424672033719	-0.6100100372074474	0.8833246838251547	0.4665147810529479	-0.5885859266268678	0.5097670611612545	0.4299007881913714	-0.6394532530446835	0.12439311172420532	0.3795575542559411	-0.43925622313937857	0.03599765169427082	0.3813718275859955	-0.4885714661140675	0.022683154587953593	0.4424376238290191	-0.709793456335727	0.04044497310285894	0.35846314188867034	-0.6028097816607566	0.888728616037052	0.25709920299393346	-0.45021316708223963	0.5543362336131769	0.22320776745631388	-0.6907004803080888	0.27749922262595283	0.26226680782369	-0.5309025996772206	0.10300786095499968	0.25686718323920715	-0.5703905550446369	0.06341952898675635	0.22747435425598803	-0.7547983150267266	0.23449927034638474	0.2636592100815965	-0.6485062796276011	1.5823561809854474	0.35082137181304485	-0.607109328201572	1.8244814349540892	0.37257056476240275	-0.44501072234289374	1.6920517936316324	0.39249174850860025	-0.6777770671490303	1.4622304415358662	0.5298069975780986	-0.5588332087725391	1.1550017805514012	0.6070221820274865	-0.4365327025869334	0.9285909504138422	0.6342906842115241	-0.6829072895332224	1.4709812069756703	0.14772359009410221	-0.6693920736383231	1.1539304385556959	0.11970535700709749	-0.6584535669883723	0.8956442807026767	0.09567626934402482
81	2.7	-0.5786410252639492	0.9129282384030059	0.36647546679077947	-0.5828916991989199	0.8837659080736826	0.4662387654471959	-0.5821915856740884	0.5170508936468468	0.42551780795181954	-0.6359117171308966	0.11673479069726397	0.37295558648851745	-0.435292360306807	0.0397533962574076	0.38444907385752797	-0.4900435962953301	0.01651765588178685	0.42884284954359625	-0.7145988057129361	0.0344592134513837	0.35131663464654767	-0.5647397649327204	0.8965643294635434	0.2489613216603079	-0.33592196923671713	0.5794948310215953	0.26616434204736916	-0.585181387651101	0.22833748230554865	0.25981405868152485	-0.40064269900468047	0.07926399300492484	0.2586586535989943	-0.38211352238215474	0.08254581729762832	0.2197340782169762	-0.6521071230178369	0.1703723062333681	0.26388675639707687	-0.6083753582352004	1.5894336568418737	0.3505032319760501	-0.5515310877226316	1.83480820420418	0.3684657239167988	-0.4487490725469394	1.686339167314684	0.37247821360250427	-0.6380227865230174	1.468894090480788	0.5334445936560634	-0.5088382040555296	1.1598379648811352	0.6132010604023478	-0.35910687072543584	0.9405268253984059	0.6293747931269701	-0.6452538892100271	1.47604276333434	0.14788775556914296	-0.6694007593897632	1.1620036873231332	0.10631627336402884	-0.6396771609414512	0.9015997547232343	0.09414612713338452
82	2.7333333333333334	-0.5435437102961053	0.910648557847512	0.3706869940370693	-0.5524525429495051	0.8873101028764199	0.4724248542142633	-0.5718309812060282	0.516574991715474	0.4244757026162204	-0.641313727999093	0.12022407175366946	0.36501346919288	-0.46124704861413796	0.0376255194457305	0.41646709492770523	-0.48298796906896785	0.02831565458605981	0.4420281981811389	-0.7130486740182096	0.03153000560404362	0.3619199567392838	-0.5242140453954275	0.8975465189779738	0.256238664891949	-0.2920416830328385	0.5820970574036519	0.2664491737340468	-0.4649822233471988	0.19164881186554042	0.26071902455837703	-0.26454419773636983	0.07129049373384276	0.25116827692296373	-0.31181732031850373	0.08183996821530093	0.20939873050928032	-0.5185847418759145	0.11330504038412749	0.27566950089832887	-0.5690853423491552	1.5885395290688793	0.35025505294104414	-0.5135954761148238	1.8328675308515059	0.366906233250757	-0.4160537454478075	1.6847635460078025	0.3661385574532808	-0.5938930842128034	1.4737927724024424	0.5361443083855765	-0.45787661788534256	1.1691587984316791	0.6133990039715167	-0.2950051403168745	0.9586969614630065	0.6246830124522886	-0.6076074498371336	1.4751957021552113	0.14959236911719329	-0.640240489211268	1.1624271484855158	0.11499221937125945	-0.610940930357399	0.8998241373681292	0.09252326819099149
83	2.7666666666666666	-0.5039942960743656	0.9075765316516573	0.3730420008151885	-0.5179541026948513	0.889600342276425	0.4800632052812351	-0.5548688298964729	0.5118242622659954	0.42410463906568036	-0.6313368349050698	0.11748723393901961	0.3716946737752008	-0.4603484340089963	0.04280215640584895	0.3718852023885043	-0.4896040360664953	0.022331313426207998	0.4325328952595355	-0.7056987107539627	0.029442327263326344	0.35443237425718194	-0.47973601551840256	0.896281481990656	0.2587054168116672	-0.2532275437118828	0.575743431490039	0.26714457753922316	-0.341608153634663	0.1856035504214579	0.26199044227643525	-0.1495216339774526	0.07387149969256154	0.24895928203622983	-0.18250977146060582	0.07272321593167605	0.20911025555139517	-0.37657307085293407	0.11551693655179873	0.28548642648453004	-0.5254073748935907	1.587100876233249	0.351928059894014	-0.4477821374623585	1.8451086942433446	0.38149436569965045	-0.3700768622957417	1.6826681125729541	0.37068160398780403	-0.5562173906317193	1.4723766188809237	0.5329857448500995	-0.4109249019651739	1.1715723588658302	0.613956092778761	-0.2245246901407576	0.9669112420291568	0.618882165924995	-0.5665065900143079	1.4724843291712582	0.15100426477531814	-0.6037525045070546	1.16592046118447	0.11606106352732766	-0.5976779881491001	0.9145838046580097	0.09294632343136279
